REM DIRINDEX 1\2\6,1\2\7,1\2\8,1\2\9,1\3\10,1\3\11,1\4\12,1\4\13,1\4\14,1\5\15,1\5\16,1\5\17
REM DIRNAME folder01,folder02,folder03,folder04,folder05,folder06,folder07,folder08,folder09,folder10,folder11,folder12,folder13,folder14,folder15,folder16,folder17
TITLE ""
FILE "1400_2_sec13_1201_1215.mp3" MP3
  TRACK 01 AUDIO
    TITLE "0:"
    INDEX 01 00:00:00
  TRACK 02 AUDIO
    TITLE "12:cjc029_4017"
    INDEX 01 00:03:25
  TRACK 03 AUDIO
    TITLE "0:"
    INDEX 01 00:05:14
  TRACK 04 AUDIO
    TITLE "12:cjc029_4018"
    INDEX 01 00:05:63
  TRACK 05 AUDIO
    TITLE "0:"
    INDEX 01 00:07:11
  TRACK 06 AUDIO
    TITLE "13:cjc029_4019"
    INDEX 01 00:08:11
  TRACK 07 AUDIO
    TITLE "0:"
    INDEX 01 00:09:26
  TRACK 08 AUDIO
    TITLE "14:cjc029_4020"
    INDEX 01 00:09:34
  TRACK 09 AUDIO
    TITLE "0:"
    INDEX 01 00:15:01
  TRACK 10 AUDIO
    TITLE "13:cjc029_4021"
    INDEX 01 00:15:60
  TRACK 11 AUDIO
    TITLE "0:"
    INDEX 01 00:17:02
  TRACK 12 AUDIO
    TITLE "14:cjc029_4022"
    INDEX 01 00:17:10
  TRACK 13 AUDIO
    TITLE "0:"
    INDEX 01 00:18:11
  TRACK 14 AUDIO
    TITLE "13:cjc029_4023"
    INDEX 01 00:18:68
  TRACK 15 AUDIO
    TITLE "0:"
    INDEX 01 00:20:18
  TRACK 16 AUDIO
    TITLE "14:cjc029_4024"
    INDEX 01 00:20:22
  TRACK 17 AUDIO
    TITLE "0:"
    INDEX 01 00:21:51
  TRACK 18 AUDIO
    TITLE "13:cjc029_4025"
    INDEX 01 00:22:32
  TRACK 19 AUDIO
    TITLE "0:"
    INDEX 01 00:23:48
  TRACK 20 AUDIO
    TITLE "14:cjc029_4026"
    INDEX 01 00:23:55
  TRACK 21 AUDIO
    TITLE "0:"
    INDEX 01 00:27:18
  TRACK 22 AUDIO
    TITLE "13:cjc029_4027"
    INDEX 01 00:27:73
  TRACK 23 AUDIO
    TITLE "0:"
    INDEX 01 00:29:19
  TRACK 24 AUDIO
    TITLE "14:cjc029_4028"
    INDEX 01 00:29:25
  TRACK 25 AUDIO
    TITLE "0:"
    INDEX 01 00:31:12
  TRACK 26 AUDIO
    TITLE "13:cjc029_4029"
    INDEX 01 00:31:71
  TRACK 27 AUDIO
    TITLE "0:"
    INDEX 01 00:32:74
  TRACK 28 AUDIO
    TITLE "14:cjc029_4030"
    INDEX 01 00:33:03
  TRACK 29 AUDIO
    TITLE "0:"
    INDEX 01 00:34:34
  TRACK 30 AUDIO
    TITLE "13:cjc029_4031"
    INDEX 01 00:35:15
  TRACK 31 AUDIO
    TITLE "0:"
    INDEX 01 00:36:36
  TRACK 32 AUDIO
    TITLE "14:cjc029_4032"
    INDEX 01 00:36:40
  TRACK 33 AUDIO
    TITLE "0:"
    INDEX 01 00:39:05
  TRACK 34 AUDIO
    TITLE "13:cjc029_4033"
    INDEX 01 00:39:64
  TRACK 35 AUDIO
    TITLE "0:"
    INDEX 01 00:41:18
  TRACK 36 AUDIO
    TITLE "14:cjc029_4034"
    INDEX 01 00:41:22
  TRACK 37 AUDIO
    TITLE "0:"
    INDEX 01 00:43:39
  TRACK 38 AUDIO
    TITLE "13:cjc029_4035"
    INDEX 01 00:44:18
  TRACK 39 AUDIO
    TITLE "0:"
    INDEX 01 00:45:20
  TRACK 40 AUDIO
    TITLE "14:cjc029_4036"
    INDEX 01 00:45:24
  TRACK 41 AUDIO
    TITLE "0:"
    INDEX 01 00:47:70
  TRACK 42 AUDIO
    TITLE "13:cjc029_4037"
    INDEX 01 00:48:53
  TRACK 43 AUDIO
    TITLE "0:"
    INDEX 01 00:49:70
  TRACK 44 AUDIO
    TITLE "14:cjc029_4038"
    INDEX 01 00:50:01
  TRACK 45 AUDIO
    TITLE "0:"
    INDEX 01 00:51:16
  TRACK 46 AUDIO
    TITLE "13:cjc029_4039"
    INDEX 01 00:52:00
  TRACK 47 AUDIO
    TITLE "0:"
    INDEX 01 00:53:04
  TRACK 48 AUDIO
    TITLE "14:cjc029_4040"
    INDEX 01 00:53:09
  TRACK 49 AUDIO
    TITLE "0:"
    INDEX 01 00:57:01
  TRACK 50 AUDIO
    TITLE "13:cjc029_4041"
    INDEX 01 00:57:58
  TRACK 51 AUDIO
    TITLE "0:"
    INDEX 01 00:58:67
  TRACK 52 AUDIO
    TITLE "14:cjc029_4042"
    INDEX 01 00:58:71
  TRACK 53 AUDIO
    TITLE "0:"
    INDEX 01 01:02:20
  TRACK 54 AUDIO
    TITLE "13:cjc029_4043"
    INDEX 01 01:03:00
  TRACK 55 AUDIO
    TITLE "0:"
    INDEX 01 01:04:05
  TRACK 56 AUDIO
    TITLE "14:cjc029_4044"
    INDEX 01 01:04:09
  TRACK 57 AUDIO
    TITLE "0:"
    INDEX 01 01:07:49
  TRACK 58 AUDIO
    TITLE "13:cjc029_4045"
    INDEX 01 01:08:33
  TRACK 59 AUDIO
    TITLE "0:"
    INDEX 01 01:09:36
  TRACK 60 AUDIO
    TITLE "14:cjc029_4046"
    INDEX 01 01:09:40
  TRACK 61 AUDIO
    TITLE "0:"
    INDEX 01 01:12:68
  TRACK 62 AUDIO
    TITLE "13:cjc029_4047"
    INDEX 01 01:13:51
  TRACK 63 AUDIO
    TITLE "0:"
    INDEX 01 01:14:57
  TRACK 64 AUDIO
    TITLE "14:cjc029_4048"
    INDEX 01 01:14:63
  TRACK 65 AUDIO
    TITLE "0:"
    INDEX 01 01:19:11
